<svg width="38" height="39" viewBox="0 0 38 39" fill="none" xmlns="http://www.w3.org/2000/svg">
<g filter="url(#filter0_d_2_333)">
<path fill-rule="evenodd" clip-rule="evenodd" d="M21.9599 2.95952C22.8802 2.03917 24.1795 1.66663 25.667 1.66663H28.3337C29.8211 1.66663 31.1204 2.03917 32.0408 2.95952C32.9611 3.87987 33.3337 5.17915 33.3337 6.66663V9.33329C33.3337 10.8208 32.9611 12.1201 32.0408 13.0404C31.1204 13.9607 29.8211 14.3333 28.3337 14.3333H25.667C24.1795 14.3333 22.8802 13.9607 21.9599 13.0404C21.0395 12.1201 20.667 10.8208 20.667 9.33329V6.66663C20.667 5.17915 21.0395 3.87987 21.9599 2.95952ZM23.3741 4.37373C22.9611 4.78672 22.667 5.48744 22.667 6.66663V9.33329C22.667 10.5125 22.9611 11.2132 23.3741 11.6262C23.7871 12.0392 24.4878 12.3333 25.667 12.3333H28.3337C29.5128 12.3333 30.2136 12.0392 30.6266 11.6262C31.0395 11.2132 31.3337 10.5125 31.3337 9.33329V6.66663C31.3337 5.48744 31.0395 4.78672 30.6266 4.37373C30.2136 3.96075 29.5128 3.66663 28.3337 3.66663H25.667C24.4878 3.66663 23.7871 3.96075 23.3741 4.37373Z" fill="#A4A4A4"/>
<path fill-rule="evenodd" clip-rule="evenodd" d="M5.95989 18.9595C6.88023 18.0392 8.17951 17.6666 9.66699 17.6666H12.3337C13.8211 17.6666 15.1204 18.0392 16.0408 18.9595C16.9611 19.8799 17.3337 21.1791 17.3337 22.6666V25.3333C17.3337 26.8208 16.9611 28.1201 16.0408 29.0404C15.1204 29.9607 13.8211 30.3333 12.3337 30.3333H9.66699C8.17951 30.3333 6.88023 29.9607 5.95989 29.0404C5.03954 28.1201 4.66699 26.8208 4.66699 25.3333V22.6666C4.66699 21.1791 5.03954 19.8799 5.95989 18.9595ZM7.3741 20.3737C6.96111 20.7867 6.66699 21.4874 6.66699 22.6666V25.3333C6.66699 26.5125 6.96111 27.2132 7.3741 27.6262C7.78709 28.0392 8.4878 28.3333 9.66699 28.3333H12.3337C13.5128 28.3333 14.2136 28.0392 14.6266 27.6262C15.0395 27.2132 15.3337 26.5125 15.3337 25.3333V22.6666C15.3337 21.4874 15.0395 20.7867 14.6266 20.3737C14.2136 19.9607 13.5128 19.6666 12.3337 19.6666H9.66699C8.4878 19.6666 7.78709 19.9607 7.3741 20.3737Z" fill="#A4A4A4"/>
<path fill-rule="evenodd" clip-rule="evenodd" d="M11.0003 3.66663C8.60709 3.66663 6.66699 5.60673 6.66699 7.99996C6.66699 10.3932 8.60709 12.3333 11.0003 12.3333C13.3936 12.3333 15.3337 10.3932 15.3337 7.99996C15.3337 5.60673 13.3936 3.66663 11.0003 3.66663ZM4.66699 7.99996C4.66699 4.50216 7.50252 1.66663 11.0003 1.66663C14.4981 1.66663 17.3337 4.50216 17.3337 7.99996C17.3337 11.4978 14.4981 14.3333 11.0003 14.3333C7.50252 14.3333 4.66699 11.4978 4.66699 7.99996Z" fill="#A4A4A4"/>
<path fill-rule="evenodd" clip-rule="evenodd" d="M27.0003 19.6666C24.6071 19.6666 22.667 21.6067 22.667 24C22.667 26.3932 24.6071 28.3333 27.0003 28.3333C29.3936 28.3333 31.3337 26.3932 31.3337 24C31.3337 21.6067 29.3936 19.6666 27.0003 19.6666ZM20.667 24C20.667 20.5022 23.5025 17.6666 27.0003 17.6666C30.4981 17.6666 33.3337 20.5022 33.3337 24C33.3337 27.4978 30.4981 30.3333 27.0003 30.3333C23.5025 30.3333 20.667 27.4978 20.667 24Z" fill="#A4A4A4"/>
</g>
<defs>
<filter id="filter0_d_2_333" x="-1" y="0" width="40" height="40" filterUnits="userSpaceOnUse" color-interpolation-filters="sRGB">
<feFlood flood-opacity="0" result="BackgroundImageFix"/>
<feColorMatrix in="SourceAlpha" type="matrix" values="0 0 0 0 0 0 0 0 0 0 0 0 0 0 0 0 0 0 127 0" result="hardAlpha"/>
<feOffset dy="4"/>
<feGaussianBlur stdDeviation="2"/>
<feComposite in2="hardAlpha" operator="out"/>
<feColorMatrix type="matrix" values="0 0 0 0 0 0 0 0 0 0 0 0 0 0 0 0 0 0 0.25 0"/>
<feBlend mode="normal" in2="BackgroundImageFix" result="effect1_dropShadow_2_333"/>
<feBlend mode="normal" in="SourceGraphic" in2="effect1_dropShadow_2_333" result="shape"/>
</filter>
</defs>
</svg>
